<?xml version="1.0" encoding="UTF-8"?> <!-- Generator: Adobe Illustrator 25.0.1, SVG Export Plug-In . SVG Version: 6.00 Build 0) --> <svg xmlns="http://www.w3.org/2000/svg" xmlns:xlink="http://www.w3.org/1999/xlink" id="Layer_1" x="0px" y="0px" viewBox="0 0 392.9 217" style="enable-background:new 0 0 392.9 217;" xml:space="preserve"> <style type="text/css"> .st0{fill:#222720;} </style> <path class="st0" d="M20.8,216.4v-7.5c-0.7,0.8-1.8,1.4-3.3,1.9c-1.5,0.4-3,0.6-4.6,0.6c-2.5,0-4.6-0.7-6-2.1 c-1.5-1.4-2.2-3.3-2.2-5.9V197h5.1v5.3c0,1.5,0.5,2.7,1.4,3.7c0.9,1,2.1,1.5,3.7,1.5c2.9,0,4.9-0.9,6-2.7V197h5.1v19.4H20.8z"></path> <polygon class="st0" points="31.8,216.4 31.8,197 36.3,197 36.3,208.7 36.3,210.4 37.5,209.1 48.6,197 53.8,197 53.8,216.4 49.2,216.4 49.2,204.7 49.3,203 48,204.3 36.9,216.4 "></polygon> <path class="st0" d="M58.3,206.7c0-3.1,1.1-5.6,3.4-7.5c2.3-1.9,5.2-2.8,8.9-2.8c3,0,5.6,0.7,7.9,2.2c2.3,1.5,3.5,3.6,3.7,6.2 l-4.6,1.1l-0.1-0.1c-0.3-1.9-1-3.2-2.3-4.1c-1.3-0.8-2.8-1.3-4.6-1.3c-2,0-3.7,0.6-5,1.7c-1.3,1.1-1.9,2.6-1.9,4.4 c0,2,0.7,3.5,2,4.6c1.4,1.1,3.2,1.7,5.4,1.7c1.6,0,3-0.3,4.2-0.9c1.2-0.6,2-1.5,2.4-2.8l4.6,1.4c-0.7,2-2.1,3.5-4.2,4.7 c-2,1.1-4.5,1.7-7.3,1.7c-3.8,0-6.8-0.9-9.1-2.8C59.4,212.3,58.3,209.8,58.3,206.7"></path> <polygon class="st0" points="93,216.4 93,201.1 84.8,201.1 84.8,197 106.3,197 106.3,201.1 98.1,201.1 98.1,216.4 "></polygon> <path class="st0" d="M126.7,211.2c1.4-1.1,2-2.6,2-4.5c0-1.9-0.7-3.4-2-4.5c-1.3-1.1-3.1-1.6-5.3-1.6c-2.2,0-4,0.5-5.3,1.6 c-1.4,1.1-2,2.6-2,4.5c0,1.9,0.7,3.4,2,4.5c1.4,1.1,3.1,1.7,5.3,1.7C123.6,212.9,125.3,212.3,126.7,211.2 M108.7,206.7 c0-3,1.1-5.5,3.5-7.4c2.4-1.9,5.4-2.8,9.2-2.8c3.8,0,6.9,0.9,9.2,2.8c2.3,1.9,3.5,4.4,3.5,7.4c0,3.1-1.1,5.5-3.5,7.5 c-2.3,1.9-5.4,2.8-9.2,2.8c-3.8,0-6.9-0.9-9.2-2.8C109.8,212.2,108.6,209.8,108.7,206.7"></path> <polygon class="st0" points="144.7,216.4 144.7,201.1 136.4,201.1 136.4,197 158,197 158,201.1 149.7,201.1 149.7,216.4 "></polygon> <path class="st0" d="M165.8,208.7h7.7l-3.9-8.3L165.8,208.7z M177.1,216.4l-1.8-3.9h-11.2l-1.8,3.9h-5.3l9.7-19.4h6.2l9.7,19.4 H177.1z"></path> <polygon class="st0" points="199.3,216.4 199.3,197 221,197 221,216.4 215.9,216.4 215.9,200.8 204.4,200.8 204.4,216.4 "></polygon> <path class="st0" d="M243.5,211.2c1.4-1.1,2-2.6,2-4.5c0-1.9-0.7-3.4-2-4.5c-1.3-1.1-3.1-1.6-5.3-1.6c-2.2,0-4,0.5-5.3,1.6 c-1.4,1.1-2,2.6-2,4.5c0,1.9,0.7,3.4,2,4.5c1.4,1.1,3.1,1.7,5.3,1.7C240.3,212.9,242.1,212.3,243.5,211.2 M225.5,206.7 c0-3,1.1-5.5,3.5-7.4c2.4-1.9,5.4-2.8,9.2-2.8c3.8,0,6.9,0.9,9.2,2.8c2.3,1.9,3.5,4.4,3.5,7.4c0,3.1-1.1,5.5-3.5,7.5 c-2.3,1.9-5.4,2.8-9.2,2.8c-3.8,0-6.9-0.9-9.2-2.8C226.6,212.2,225.4,209.8,225.5,206.7"></path> <polygon class="st0" points="268.1,216.4 268.1,197 273.2,197 273.2,204.6 285,204.6 285,197 290,197 290,216.4 285,216.4 285,208.5 273.2,208.5 273.2,216.4 "></polygon> <path class="st0" d="M302.8,208.7h7.7l-3.9-8.3L302.8,208.7z M314.1,216.4l-1.8-3.9h-11.2l-1.8,3.9h-5.3l9.7-19.4h6.2l9.7,19.4 H314.1z"></path> <path class="st0" d="M322.9,215.8l0.9-3c1.2,0.4,2.1,0.7,2.8,0.7c0.6,0,1.2-0.1,1.5-0.4c0.4-0.2,0.7-0.7,1-1.3l0.4-0.9l-8.2-13.8 h5.8l4.9,10.2l4.7-10.2h5.6l-8.4,15.6c-0.9,1.6-1.8,2.6-2.7,3.3c-0.9,0.6-2.1,0.9-3.5,0.9C325.9,216.9,324.3,216.5,322.9,215.8"></path> <polygon class="st0" points="358.7,206.7 360.9,209.1 366.3,216.4 360.5,216.4 354.9,208.6 351.2,208.6 351.2,216.4 346.1,216.4 346.1,197 351.2,197 351.2,204.8 354.9,204.8 360.5,197 366.3,197 360.8,204.3 "></polygon> <polygon class="st0" points="370.4,216.4 370.4,197 389.1,197 389.1,200.9 375.5,200.9 375.5,204.8 386.7,204.8 386.7,208.3 375.5,208.3 375.5,212.5 389.4,212.5 389.4,216.4 "></polygon> <path class="st0" d="M24.1,91.3c-4.1,2.5-7.7,6.3-10.8,11.6c-8.3,14.3-3.5,30.8,12.2,39.8c15.7,9.1,32.5,4.9,41.4-10.4 c3-5.1,4.4-10.3,4.3-15.8c0-1,0.3-2,0.7-2.7c0.6-1,1.6-1.9,3-2.1c0.8-0.1,1.6,0.1,2.3,0.4c1.2,0.7,2,2.2,2.2,3.7 c0.6,6.8-1.2,14.7-5.3,21.7c-11.5,19.8-32.8,25.7-53.4,13.7c-18.9-11-26.8-32-14.8-52.6c4.1-7,9.6-12.1,14.5-14.8 c1.6-0.8,3.1-0.8,4.4-0.1c0.6,0.3,1.1,0.9,1.5,1.6c0.8,1.5,0.7,2.8-0.1,4C25.5,90.1,24.9,90.8,24.1,91.3"></path> <path class="st0" d="M123.1,80c1.9-1.3,4.6-0.8,6,1.1c1.4,2,0.9,4.7-1,6l-31.1,21.9c-2.1,1.4-4.9,0.9-6.4-1.1L51.6,52.6 c-1.4-2-0.9-4.8,1.3-6.4c2-1.4,4.9-0.9,6.3,1l36.7,52L123.1,80z"></path> <path class="st0" d="M178,66.1c2.2-0.5,4.6,1.1,5,3.4c0.5,2.4-1,4.7-3.3,5.1l-34.6,7.1c-2.5,0.5-4.9-1.1-5.4-3.6l-13.5-65.8 c-0.5-2.5,1.1-4.9,3.6-5.4l33.5-6.9c2.2-0.5,4.6,1.1,5,3.4c0.5,2.3-1,4.7-3.3,5.1l-28.9,5.9l4.9,24.1l25.7-5.3 c2.2-0.5,4.6,1.1,5,3.4s-1,4.7-3.3,5.1l-25.7,5.3l5.1,25L178,66.1z"></path> <path class="st0" d="M236.8,73.9c2.2,0.5,3.8,2.8,3.3,5.1c-0.5,2.4-2.8,3.9-5,3.4l-34.6-7c-2.5-0.5-4.1-2.9-3.6-5.4l13.3-65.8 c0.5-2.5,2.9-4.1,5.4-3.6l33.6,6.8c2.2,0.5,3.8,2.8,3.3,5.1c-0.5,2.4-2.8,3.9-5,3.4l-29-5.8l-4.9,24.2l25.8,5.2 c2.2,0.5,3.8,2.8,3.3,5.1c-0.5,2.4-2.8,3.9-5,3.4l-25.8-5.2l-5,25L236.8,73.9z"></path> <path class="st0" d="M337.3,65.9c1.4-1.8,4.2-2.1,6.1-0.6c1.9,1.5,2.2,4.3,0.7,6l-43.1,53.5c-1.7,2.1-4.1,2.7-6,1.2 c-1.8-1.4-2.2-3.2-2.2-6.1l0.6-73.3l-35.5,44c-1.4,1.8-4.2,2.1-6.1,0.6c-1.9-1.5-2.2-4.3-0.7-6L293.9,32c1.6-2,4.2-3.2,6.5-1.3 c1.8,1.4,2.2,3.2,2.1,6.8l-0.7,72.4L337.3,65.9z"></path> <path class="st0" d="M371.1,98.5c0.9,1.8,0.5,3.3-1,5.6l-20.3,31.7l37.5,3.8c2.5,0.2,4.2,1,5.1,2.8c1.2,2.5,0.1,4.5-1.7,5.4 c-0.8,0.4-1.7,0.5-2.6,0.4l-44.3-4.8l-26,12.6c-2.3,1.1-5,0.1-6.1-2.1c-1.1-2.4-0.2-5.1,2.1-6.2l26-12.6l23.3-37 c0.5-0.9,1.2-1.4,2-1.8C367.2,95.2,369.9,96,371.1,98.5"></path> </svg> 